<?xml version="1.0" encoding="UTF-8" standalone="no"?>
<!-- Created with Inkscape (http://www.inkscape.org/) -->

<svg
   version="1.1"
   id="svg2"
   width="666.66669"
   height="496.81332"
   viewBox="0 0 666.66669 496.81332"
   sodipodi:docname="2888958.eps"
   xmlns:inkscape="http://www.inkscape.org/namespaces/inkscape"
   xmlns:sodipodi="http://sodipodi.sourceforge.net/DTD/sodipodi-0.dtd"
   xmlns="http://www.w3.org/2000/svg"
   xmlns:svg="http://www.w3.org/2000/svg">
  <defs
     id="defs6" />
  <sodipodi:namedview
     id="namedview4"
     pagecolor="#ffffff"
     bordercolor="#000000"
     borderopacity="0.25"
     inkscape:showpageshadow="2"
     inkscape:pageopacity="0.0"
     inkscape:pagecheckerboard="0"
     inkscape:deskcolor="#d1d1d1" />
  <g
     id="g8"
     inkscape:groupmode="layer"
     inkscape:label="ink_ext_XXXXXX"
     transform="matrix(1.3333333,0,0,-1.3333333,0,496.81333)">
    <g
       id="g10"
       transform="scale(0.1)">
      <path
         d="M 5000,449.129 H 0 v 2.5 h 5000 v -2.5"
         style="fill:#e7e8e5;fill-opacity:1;fill-rule:nonzero;stroke:none"
         id="path12" />
      <path
         d="m 4167.79,290.672 h 331.22 v -2.5 h -331.22 v 2.5"
         style="fill:#e7e8e5;fill-opacity:1;fill-rule:nonzero;stroke:none"
         id="path14" />
      <path
         d="m 2920,263.539 h 392.2 v -2.5 H 2920 v 2.5"
         style="fill:#e7e8e5;fill-opacity:1;fill-rule:nonzero;stroke:none"
         id="path16" />
      <path
         d="m 3587.55,383.531 h 570.23 v -2.5 h -570.23 v 2.5"
         style="fill:#e7e8e5;fill-opacity:1;fill-rule:nonzero;stroke:none"
         id="path18" />
      <path
         d="m 1744.77,366.73 h 686.31 v -2.5 h -686.31 v 2.5"
         style="fill:#e7e8e5;fill-opacity:1;fill-rule:nonzero;stroke:none"
         id="path20" />
      <path
         d="m 2520.11,366.73 h 63.33 v -2.5 h -63.33 v 2.5"
         style="fill:#e7e8e5;fill-opacity:1;fill-rule:nonzero;stroke:none"
         id="path22" />
      <path
         d="m 983.336,322.012 h 1268.13 v 2.5 H 983.336 Z"
         style="fill:#e7e8e5;fill-opacity:1;fill-rule:nonzero;stroke:none"
         id="path24" />
      <path
         d="m 439.152,3723.59 c -30.097,0 -54.582,-24.48 -54.582,-54.57 V 954.699 c 0,-30.097 24.485,-54.578 54.582,-54.578 H 2370.14 c 30.09,0 54.57,24.481 54.57,54.578 V 3669.02 c 0,30.09 -24.48,54.57 -54.57,54.57 H 439.152 M 2370.14,897.621 H 439.152 c -31.476,0 -57.082,25.598 -57.082,57.078 V 3669.02 c 0,31.46 25.606,57.07 57.082,57.07 H 2370.14 c 31.46,0 57.07,-25.61 57.07,-57.07 V 954.699 c 0,-31.48 -25.61,-57.078 -57.07,-57.078"
         style="fill:#e7e8e5;fill-opacity:1;fill-rule:nonzero;stroke:none"
         id="path26" />
      <path
         d="m 2602.12,3723.59 c -30.09,0 -54.57,-24.48 -54.57,-54.57 V 954.699 c 0,-30.097 24.48,-54.578 54.57,-54.578 H 4533.1 c 30.1,0 54.59,24.481 54.59,54.578 V 3669.02 c 0,30.09 -24.49,54.57 -54.59,54.57 H 2602.12 M 4533.1,897.621 H 2602.12 c -31.47,0 -57.07,25.598 -57.07,57.078 V 3669.02 c 0,31.46 25.6,57.07 57.07,57.07 H 4533.1 c 31.48,0 57.09,-25.61 57.09,-57.07 V 954.699 c 0,-31.48 -25.61,-57.078 -57.09,-57.078"
         style="fill:#e7e8e5;fill-opacity:1;fill-rule:nonzero;stroke:none"
         id="path28" />
      <path
         d="M 783.328,451.629 H 1133.66 V 1628.39 H 783.328 V 451.629"
         style="fill:#f3f2f1;fill-opacity:1;fill-rule:nonzero;stroke:none"
         id="path30" />
      <path
         d="m 783.328,451.629 h 57.777 V 1628.39 H 783.328 V 451.629"
         style="fill:#ededeb;fill-opacity:1;fill-rule:nonzero;stroke:none"
         id="path32" />
      <path
         d="m 1079.66,1295.06 h 1330.21 v 294.441 H 1079.66 Z"
         style="fill:#e2e2e0;fill-opacity:1;fill-rule:nonzero;stroke:none"
         id="path34" />
      <path
         d="m 1079.66,1138.95 h 1330.21 v 68.0117 H 1079.66 Z"
         style="fill:#e2e2e0;fill-opacity:1;fill-rule:nonzero;stroke:none"
         id="path36" />
      <path
         d="m 783.328,1526.17 h 1548.76 v 102.219 H 783.328 Z"
         style="fill:#ededeb;fill-opacity:1;fill-rule:nonzero;stroke:none"
         id="path38" />
      <path
         d="m 2332.09,451.629 h 350.33 V 1628.39 H 2332.09 V 451.629"
         style="fill:#f3f2f1;fill-opacity:1;fill-rule:nonzero;stroke:none"
         id="path40" />
      <path
         d="m 2332.09,451.629 h 57.78 V 1628.39 h -57.78 V 451.629"
         style="fill:#ededeb;fill-opacity:1;fill-rule:nonzero;stroke:none"
         id="path42" />
      <path
         d="m 2841.32,451.629 h 601.301 v 1818.43 H 2841.32 Z"
         style="fill:#ededeb;fill-opacity:1;fill-rule:nonzero;stroke:none"
         id="path44" />
      <path
         d="m 3409.61,1689.16 v 535.29 h -535.29 v -535.29 h 535.29"
         style="fill:#e2e2e0;fill-opacity:1;fill-rule:nonzero;stroke:none"
         id="path46" />
      <path
         d="m 3409.61,1105.83 v 535.29 h -535.29 v -535.29 h 535.29"
         style="fill:#e2e2e0;fill-opacity:1;fill-rule:nonzero;stroke:none"
         id="path48" />
      <path
         d="m 3409.61,522.5 v 535.29 H 2874.32 V 522.5 h 535.29"
         style="fill:#e2e2e0;fill-opacity:1;fill-rule:nonzero;stroke:none"
         id="path50" />
      <path
         d="m 3084.87,1689.16 v 535.29 h -210.55 v -535.29 h 210.55"
         style="fill:#dadbd8;fill-opacity:1;fill-rule:nonzero;stroke:none"
         id="path52" />
      <path
         d="m 3084.87,1105.83 v 535.29 h -210.55 v -535.29 h 210.55"
         style="fill:#dadbd8;fill-opacity:1;fill-rule:nonzero;stroke:none"
         id="path54" />
      <path
         d="m 3084.87,522.5 v 535.29 H 2874.32 V 522.5 h 210.55"
         style="fill:#dadbd8;fill-opacity:1;fill-rule:nonzero;stroke:none"
         id="path56" />
      <path
         d="M 3605.88,451.629 V 2270.06 H 3442.62 V 451.629 h 163.26"
         style="fill:#f3f2f1;fill-opacity:1;fill-rule:nonzero;stroke:none"
         id="path58" />
      <path
         d="m 3484.17,451.629 h 601.289 v 1818.43 H 3484.17 Z"
         style="fill:#ededeb;fill-opacity:1;fill-rule:nonzero;stroke:none"
         id="path60" />
      <path
         d="m 3517.17,1689.16 h 535.289 v 535.289 H 3517.17 Z"
         style="fill:#e2e2e0;fill-opacity:1;fill-rule:nonzero;stroke:none"
         id="path62" />
      <path
         d="m 4052.46,1105.83 v 535.29 h -535.29 v -535.29 h 535.29"
         style="fill:#e2e2e0;fill-opacity:1;fill-rule:nonzero;stroke:none"
         id="path64" />
      <path
         d="m 4052.46,522.5 v 535.29 H 3517.17 V 522.5 h 535.29"
         style="fill:#e2e2e0;fill-opacity:1;fill-rule:nonzero;stroke:none"
         id="path66" />
      <path
         d="m 3517.17,1689.16 h 210.547 v 535.289 H 3517.17 Z"
         style="fill:#dadbd8;fill-opacity:1;fill-rule:nonzero;stroke:none"
         id="path68" />
      <path
         d="m 3727.72,1105.83 v 535.29 h -210.55 v -535.29 h 210.55"
         style="fill:#dadbd8;fill-opacity:1;fill-rule:nonzero;stroke:none"
         id="path70" />
      <path
         d="m 3727.72,522.5 v 535.29 H 3517.17 V 522.5 h 210.55"
         style="fill:#dadbd8;fill-opacity:1;fill-rule:nonzero;stroke:none"
         id="path72" />
      <path
         d="m 4085.46,451.629 h 163.27 v 1818.43 h -163.27 z"
         style="fill:#f3f2f1;fill-opacity:1;fill-rule:nonzero;stroke:none"
         id="path74" />
      <path
         d="m 3646.59,1827.39 c 0,76.34 61.88,138.23 138.22,138.23 76.34,0 138.23,-61.89 138.23,-138.23 0,-76.34 -61.89,-138.23 -138.23,-138.23 -76.34,0 -138.22,61.89 -138.22,138.23"
         style="fill:#f3f2f1;fill-opacity:1;fill-rule:nonzero;stroke:none"
         id="path76" />
      <path
         d="m 3313.28,1244.06 c 0,-76.34 -61.89,-138.23 -138.23,-138.23 -76.34,0 -138.22,61.89 -138.22,138.23 h 276.45"
         style="fill:#ededeb;fill-opacity:1;fill-rule:nonzero;stroke:none"
         id="path78" />
      <path
         d="m 3313.28,1347.39 c 0,-76.34 -61.89,-138.23 -138.23,-138.23 -76.34,0 -138.22,61.89 -138.22,138.23 h 276.45"
         style="fill:#ededeb;fill-opacity:1;fill-rule:nonzero;stroke:none"
         id="path80" />
      <path
         d="M 3988.14,980.621 H 3553.51 V 522.5 h 434.63 v 458.121"
         style="fill:#ededeb;fill-opacity:1;fill-rule:nonzero;stroke:none"
         id="path82" />
      <path
         d="m 3988.14,980.621 h 64.32 V 522.5 h -64.32 v 458.121"
         style="fill:#dadbd8;fill-opacity:1;fill-rule:nonzero;stroke:none"
         id="path84" />
      <path
         d="m 3666.6,2270.06 h 172.789 v 669.613 H 3666.6 Z"
         style="fill:#e2e2e0;fill-opacity:1;fill-rule:nonzero;stroke:none"
         id="path86" />
      <path
         d="m 3198.11,2270.06 h 573.47 l 86.61,783.73 h -573.48 l -86.6,-783.73"
         style="fill:#ededeb;fill-opacity:1;fill-rule:nonzero;stroke:none"
         id="path88" />
      <path
         d="m 3135.99,2270.06 h 592.36 l 86.61,783.73 H 3222.6 l -86.61,-783.73"
         style="fill:#f3f2f1;fill-opacity:1;fill-rule:nonzero;stroke:none"
         id="path90" />
      <path
         d="m 3557.64,2270.06 h 114.93 l -132.44,783.73 H 3425.2 l 132.44,-783.73"
         style="fill:#fafaf9;fill-opacity:1;fill-rule:nonzero;stroke:none"
         id="path92" />
      <path
         d="m 3455.16,2270.06 h 44.59 l -132.44,783.73 h -44.59 l 132.44,-783.73"
         style="fill:#fafaf9;fill-opacity:1;fill-rule:nonzero;stroke:none"
         id="path94" />
      <path
         d="m 709.414,1895.62 h 1350 v 1506.66 h -1350 z"
         style="fill:#e7e8e5;fill-opacity:1;fill-rule:nonzero;stroke:none"
         id="path96" />
      <path
         d="m 2059.41,1895.62 h 12.2305 V 3402.28 H 2059.41 Z"
         style="fill:#dadbd8;fill-opacity:1;fill-rule:nonzero;stroke:none"
         id="path98" />
      <path
         d="m 809.418,1995.62 h 1150 v 1306.66 h -1150 z"
         style="fill:#f3f2f1;fill-opacity:1;fill-rule:nonzero;stroke:none"
         id="path100" />
      <path
         d="m 1475.2,1925.62 h 323.852 v 453.328 H 1475.2 Z"
         style="fill:#ffffff;fill-opacity:1;fill-rule:nonzero;stroke:none"
         id="path102" />
      <path
         d="m 1000.08,2085.19 h 323.85 l 23.29,453.33 h -323.85 l -23.29,-453.33"
         style="fill:#ffffff;fill-opacity:1;fill-rule:nonzero;stroke:none"
         id="path104" />
      <path
         d="m 1655.87,2891.86 h 323.85 l 23.29,453.33 h -323.85 l -23.29,-453.33"
         style="fill:#ffffff;fill-opacity:1;fill-rule:nonzero;stroke:none"
         id="path106" />
      <path
         d="m 1230.47,2632.35 323.54,-14.2 19.87,452.9 -323.54,14.19 -19.87,-452.89"
         style="fill:#ffffff;fill-opacity:1;fill-rule:nonzero;stroke:none"
         id="path108" />
      <path
         d="m 766.715,2758.34 323.715,9.37 -13.12,453.15 -323.712,-9.37 13.117,-453.15"
         style="fill:#ffffff;fill-opacity:1;fill-rule:nonzero;stroke:none"
         id="path110" />
      <path
         d="M 4438.89,113.238 C 4438.89,50.6992 3570.82,0 2500,0 1429.18,0 561.109,50.6992 561.109,113.238 c 0,62.532 868.071,113.231 1938.891,113.231 1070.82,0 1938.89,-50.699 1938.89,-113.231"
         style="fill:#f3f2f1;fill-opacity:1;fill-rule:nonzero;stroke:none"
         id="path112" />
      <path
         d="m 1549.21,192.102 h 77.24 l 30.94,178.867 h -77.24 l -30.94,-178.867"
         style="fill:#f9a8b3;fill-opacity:1;fill-rule:nonzero;stroke:none"
         id="path114" />
      <path
         d="m 1094.95,192.102 h 77.23 l 70.57,178.867 h -77.24 l -70.56,-178.867"
         style="fill:#f9a8b3;fill-opacity:1;fill-rule:nonzero;stroke:none"
         id="path116" />
      <path
         d="m 1183.01,201.051 h -94.17 c -3.15,0 -6.01,-2.199 -6.88,-5.281 l -19.24,-68.661 c -2,-7.117 3.21,-13.859 10.51,-13.73 30.32,0.519 52.54,2.293 90.7,2.293 23.48,0 71.7,-2.434 104.12,-2.434 31.71,0 38.52,32.051 25.42,34.961 -58.76,13.02 -80.14,30.973 -98.2,48.102 -3.25,3.09 -7.64,4.75 -12.26,4.75"
         style="fill:#17282f;fill-opacity:1;fill-rule:nonzero;stroke:none"
         id="path118" />
      <path
         d="m 1626.43,201.051 h -84.35 c -3.16,0 -6.02,-2.199 -6.88,-5.281 l -19.25,-68.661 c -1.99,-7.109 3.02,-13.859 10.31,-13.738 30.46,0.52 74.53,2.301 112.78,2.301 44.72,0 83.2,-2.434 135.64,-2.434 31.71,0 42.37,32.051 29.27,34.961 -59.66,13.211 -108.92,14.633 -159.26,46.832 -5.47,3.5 -11.59,6.02 -18.26,6.02"
         style="fill:#17282f;fill-opacity:1;fill-rule:nonzero;stroke:none"
         id="path120" />
      <path
         d="m 1622.36,2404.67 c 40.85,-25.54 83.76,-51.38 126.05,-75.89 42.43,-24.65 85.28,-48.29 128.25,-68.89 10.78,-5.3 21.41,-9.89 32.13,-14.78 5.35,-2.39 10.62,-4.32 15.94,-6.53 l 7.96,-3.22 6.48,-2.46 c 16.62,-6.26 30.52,-8.09 43.74,-5.48 13.26,2.38 27.84,11.31 41.5,25.67 6.83,7.1 13.16,15.53 19.34,24.44 2.98,4.52 5.86,9.2 8.53,14.01 l 7.46,13.76 56.52,-13 c -1.1,-8.66 -1.94,-15.07 -3.64,-22.34 -1.58,-7.05 -3.47,-14.03 -5.61,-21.01 -4.34,-13.97 -10.02,-27.8 -17.74,-41.28 -7.61,-13.54 -17.39,-26.6 -29.51,-38.65 -12.08,-12.06 -27.23,-22.45 -44.15,-29.88 -16.9,-7.56 -35.52,-11.38 -53.48,-12.25 -18.08,-0.99 -35.25,1.29 -51.3,5.08 -3.83,0.98 -8.39,1.95 -11.61,3 l -9.82,3.14 c -6.5,2.14 -13.2,4.13 -19.55,6.42 -12.57,4.7 -25.51,9.05 -37.6,14.31 -49.2,20.14 -95.81,43.12 -141.17,67.88 -22.71,12.36 -45.05,25.14 -67.08,38.5 -22.15,13.39 -43.7,26.57 -65.79,41.5 l 64.15,97.95"
         style="fill:#f9a8b3;fill-opacity:1;fill-rule:nonzero;stroke:none"
         id="path122" />
      <path
         d="m 1506.08,2333.42 c 15.36,-73.77 201.06,-180.2 201.06,-180.2 l 67.71,177.9 c 0,0 -52.91,33.09 -131.98,85.91 -79.91,53.39 -153.64,-2.65 -136.79,-83.61"
         style="fill:#17282f;fill-opacity:1;fill-rule:nonzero;stroke:none"
         id="path124" />
      <path
         d="m 2038.53,2277.12 53.67,84.27 40.11,-91.73 c 0,0 -31.78,-48.22 -80.94,-23.47 l -12.84,30.93"
         style="fill:#f9a8b3;fill-opacity:1;fill-rule:nonzero;stroke:none"
         id="path126" />
      <path
         d="m 2160.73,2393.27 26.31,-68.75 -54.73,-54.86 -40.11,91.73 68.53,31.88"
         style="fill:#f9a8b3;fill-opacity:1;fill-rule:nonzero;stroke:none"
         id="path128" />
      <path
         d="m 1564.19,278.719 h -0.03 l 2.56,14.801 h 0.03 l -2.56,-14.801"
         style="fill:#c3c5c2;fill-opacity:1;fill-rule:nonzero;stroke:none"
         id="path130" />
      <path
         d="m 1641.43,278.719 h -77.24 l 2.56,14.801 h 77.24 l -2.56,-14.801"
         style="fill:#d8898c;fill-opacity:1;fill-rule:nonzero;stroke:none"
         id="path132" />
      <path
         d="m 1129.12,278.719 h -0.06 l 5.84,14.801 h 0.05 l -5.83,-14.801"
         style="fill:#c3c5c2;fill-opacity:1;fill-rule:nonzero;stroke:none"
         id="path134" />
      <path
         d="m 1206.33,278.719 h -77.21 l 5.83,14.801 h 77.23 l -5.85,-14.801"
         style="fill:#d8898c;fill-opacity:1;fill-rule:nonzero;stroke:none"
         id="path136" />
      <path
         d="m 1595.66,2435.38 c 0,0 107.31,-221.17 52.97,-666.39 -123.42,-16.2 -349.56,-45.88 -409.62,-53.76 -7.42,62.99 9.64,377.24 -72.68,667.82 0,0 69.18,23.41 135.85,35.44 52.15,9.41 127.81,21.04 174.13,22.84 61.06,2.39 119.35,-5.95 119.35,-5.95"
         style="fill:#17282f;fill-opacity:1;fill-rule:nonzero;stroke:none"
         id="path138" />
      <path
         d="m 1224.49,2050.58 c -9.27,103.68 -26.23,219.86 -58.15,332.46 l 1.74,0.53 c 4.36,1.22 8.79,1.81 13.26,1.81 36.58,0 75.52,-39.46 97.46,-94.37 35.91,-89.71 78.24,-208.73 78.24,-208.73 l -132.55,-31.7"
         style="fill:#111d23;fill-opacity:1;fill-rule:nonzero;stroke:none"
         id="path140" />
      <path
         d="m 1305.09,2618.31 c 15.08,-55.01 33.55,-157.01 -2.91,-199.82 0,0 66.91,-61.05 166.1,-69.88 38.36,40.75 8.03,92.72 8.03,92.72 -63.57,6.84 -65.35,53.76 -57.65,99.05 l -113.57,77.93"
         style="fill:#f9a8b3;fill-opacity:1;fill-rule:nonzero;stroke:none"
         id="path142" />
      <path
         d="m 1624.15,1931.41 -91.82,510.35 c -71.14,-12.8 -118.43,-80.84 -105.63,-151.98 l 45.47,-252.74 c 12.8,-71.14 80.85,-118.43 151.98,-105.63"
         style="fill:#406fbf;fill-opacity:1;fill-rule:nonzero;stroke:none"
         id="path144" />
      <path
         d="m 1600.82,1929.32 c -62.12,0 -117.26,44.42 -128.65,107.72 l -45.47,252.74 c -1.41,7.85 -2.09,15.66 -2.09,23.37 0.02,57.91 38.61,109.73 95.12,125.71 -0.32,-9.51 0.36,-19.19 2.11,-28.93 l 81.39,-452.35 c 1.75,-9.74 4.49,-19.04 8.11,-27.84 -3.53,-0.28 -7.03,-0.42 -10.52,-0.42"
         style="fill:#2d5bb2;fill-opacity:1;fill-rule:nonzero;stroke:none"
         id="path146" />
      <path
         d="m 1976.27,1426.57 -64.35,-11.58 c -46.97,-8.45 -90.7,26.22 -93.18,73.88 l -26.55,510.36 c -2.07,39.86 25.82,75.05 65.11,82.12 l 119.07,21.42 c 55.38,9.96 103.22,-39.36 91.56,-94.41 l -47.53,-224.58 c -1.63,-7.71 -2.11,-15.61 -1.41,-23.45 l 22.18,-248.73 c 3.64,-40.87 -24.51,-77.77 -64.9,-85.03"
         style="fill:#406fbf;fill-opacity:1;fill-rule:nonzero;stroke:none"
         id="path148" />
      <path
         d="m 1800.94,1829.95 -1.25,24.08 c 0.02,0.01 0.04,0.01 0.06,0.01 l 1.25,-24.08 c -0.02,0 -0.04,0 -0.06,-0.01"
         style="fill:#c3c5c2;fill-opacity:1;fill-rule:nonzero;stroke:none"
         id="path150" />
      <path
         d="m 1801,1829.96 -1.25,24.08 c 80.53,13.7 161.46,24.96 242.6,33.76 l -5.22,-24.59 c -78.98,-8.67 -157.71,-19.82 -236.13,-33.25"
         style="fill:#3563b7;fill-opacity:1;fill-rule:nonzero;stroke:none"
         id="path152" />
      <path
         d="m 2074.79,1627.07 -108.33,-19.49 0.89,187.84 108.33,19.49 -0.89,-187.84"
         style="fill:#406fbf;fill-opacity:1;fill-rule:nonzero;stroke:none"
         id="path154" />
      <path
         d="m 2091.25,1723.87 c -0.25,-51.87 -7.62,-95.21 -16.46,-96.8 -8.85,-1.59 -15.82,39.17 -15.57,91.04 0.25,51.87 7.62,95.21 16.46,96.8 8.84,1.59 15.81,-39.17 15.57,-91.04"
         style="fill:#406fbf;fill-opacity:1;fill-rule:nonzero;stroke:none"
         id="path156" />
      <path
         d="m 2074.29,1627.02 c -8.46,0 -15.08,38.8 -15.08,88.41 0,0.89 0.01,1.78 0.01,2.68 0.25,51.87 7.62,95.21 16.46,96.8 0.17,0.03 0.34,0.05 0.5,0.05 8.45,0 15.07,-38.8 15.07,-88.42 0,-0.88 0,-1.77 0,-2.67 -0.25,-51.87 -7.62,-95.21 -16.46,-96.8 -0.17,-0.03 -0.34,-0.05 -0.5,-0.05"
         style="fill:#3563b7;fill-opacity:1;fill-rule:nonzero;stroke:none"
         id="path158" />
      <path
         d="m 1632.03,2568.47 v 0 c -74.21,-13.35 -123.54,-84.33 -110.19,-158.54 l 81.39,-452.35 c 13.35,-74.2 84.33,-123.54 158.53,-110.19 l 0.01,0.01 c 265.8,47.82 535.72,68.95 805.73,63.08 l 277.74,-6.05 -177.81,988.24 -258.22,-102.47 c -251.02,-99.62 -511.38,-173.9 -777.18,-221.73"
         style="fill:#406fbf;fill-opacity:1;fill-rule:nonzero;stroke:none"
         id="path160" />
      <path
         d="m 2539.17,1910.92 c -13.48,0.3 -27.03,0.39 -40.55,0.39 l -0.01,0.08 c 13.53,-0.06 27.02,-0.2 40.54,-0.4 l 0.02,-0.07 m -194.21,854.41 -0.01,0.05 c 3.88,1.44 7.76,2.89 11.63,4.35 -3.87,-1.47 -7.75,-2.94 -11.62,-4.4 m 30.03,11.47 c 2.61,1.02 5.23,2.04 7.83,3.08 l 0.01,-0.04 c -2.61,-1.02 -5.23,-2.04 -7.84,-3.04"
         style="fill:#a7a9a8;fill-opacity:1;fill-rule:nonzero;stroke:none"
         id="path162" />
      <path
         d="m 2539.15,1910.99 c -13.52,0.2 -27.01,0.34 -40.54,0.4 l -153.65,853.94 c 3.87,1.46 7.75,2.93 11.62,4.4 6.15,2.33 12.29,4.68 18.41,7.07 2.61,1 5.23,2.02 7.84,3.04 l 156.32,-868.85"
         style="fill:#2d5bb2;fill-opacity:1;fill-rule:nonzero;stroke:none"
         id="path164" />
      <path
         d="m 2798.22,2406.09 c 49.1,-272.89 70.15,-497.49 47.02,-501.66 -23.14,-4.16 -81.7,213.69 -130.8,486.59 -49.1,272.89 -70.15,497.49 -47.01,501.65 23.13,4.17 81.69,-213.69 130.79,-486.58"
         style="fill:#406fbf;fill-opacity:1;fill-rule:nonzero;stroke:none"
         id="path166" />
      <path
         d="m 2844.57,1904.38 c -23.57,0 -81.49,216.31 -130.13,486.64 -35.55,197.6 -56.4,369.89 -56.41,451.49 -0.01,31.09 3.01,49.01 9.4,50.16 0.21,0.04 0.44,0.06 0.66,0.06 23.57,0 81.49,-216.31 130.13,-486.64 35.55,-197.61 56.4,-369.89 56.41,-451.49 0.01,-31.09 -3.01,-49.02 -9.39,-50.17 -0.22,-0.03 -0.44,-0.05 -0.67,-0.05"
         style="fill:#3563b7;fill-opacity:1;fill-rule:nonzero;stroke:none"
         id="path168" />
      <path
         d="m 1415.5,2508.57 c -0.01,0 -0.02,0 -0.02,0 0,0.8 0.02,1.61 0.04,2.42 -0.02,-0.81 -0.02,-1.61 -0.02,-2.42 m 3.1,31.84 -11.98,8.23 11.98,-8.22 c 0,0 0,0 0,-0.01"
         style="fill:#babcba;fill-opacity:1;fill-rule:nonzero;stroke:none"
         id="path170" />
      <path
         d="m 1415.48,2508.57 c -24.12,0.36 -58.81,22.45 -63.17,47.29 -2.18,12.39 -2.53,24.53 -0.92,30.65 l 55.23,-37.87 11.98,-8.23 c -1.71,-9.88 -2.92,-19.83 -3.08,-29.42 -0.02,-0.81 -0.04,-1.62 -0.04,-2.42"
         style="fill:#d8898c;fill-opacity:1;fill-rule:nonzero;stroke:none"
         id="path172" />
      <path
         d="m 1408.1,2842.84 c 40.59,-3.75 101.75,-112.84 61.06,-151.27 -40.69,-38.43 -137.93,158.37 -61.06,151.27"
         style="fill:#17282f;fill-opacity:1;fill-rule:nonzero;stroke:none"
         id="path174" />
      <path
         d="m 1265.65,2687.21 c 23.6,-71.97 33.74,-115.51 80.72,-141.31 70.68,-38.81 152.83,23.84 151.35,102.73 -1.34,71.01 -39.71,176.77 -119.39,182.96 -78.49,6.1 -136.29,-72.41 -112.68,-144.38"
         style="fill:#f9a8b3;fill-opacity:1;fill-rule:nonzero;stroke:none"
         id="path176" />
      <path
         d="m 1459.57,2854.5 c -23.92,5.03 -43.08,5.22 -60.34,4.67 14.72,14.29 26.17,27.18 31.72,35.57 -18.25,-13.44 -39.82,-21.71 -61.76,-28.34 4.22,11.57 6.62,21.62 6.81,28.85 -15.27,-18.48 -41.27,-30.9 -69.38,-41.44 13.37,17.72 22.96,34.68 27.24,49.47 -17.43,-32.21 -83.12,-59.92 -124.55,-87.47 l -0.63,-0.35 c -3.03,-1.83 -5.75,-3.8 -8.26,-5.84 l -0.45,-0.32 c -3.94,-2.92 -6.72,-5.87 -8.53,-8.75 -17.37,-21.59 -12.13,-48.41 6.96,-61.3 -14.74,-8.84 -20.4,-29.01 -12.45,-49.1 -0.63,13.95 2.68,29.27 12.79,35.49 -17.01,-49.24 40.23,-95.66 90.74,-108.73 29.54,-7.64 48.41,107.22 19.7,152.6 38.55,4.95 71.47,14.54 91.16,28.15 -12.73,-5.24 -28.85,-5.45 -46.04,-3.93 36.99,14.6 76.79,35.2 108.23,29.96 -13.01,5.27 -29.03,7.79 -47.19,8.18 11.79,4.19 22.97,7.24 33.51,6.8 33.61,-1.39 55.83,-30.28 47.22,-49.17 14.45,21.95 9.76,55.28 -36.5,65"
         style="fill:#17282f;fill-opacity:1;fill-rule:nonzero;stroke:none"
         id="path178" />
      <path
         d="m 1253.43,2595.66 c 14.83,-13.54 34.85,-18.51 51.72,-16.91 25.38,2.41 30.37,27.55 16.86,46.93 -12.16,17.45 -40.03,37.22 -62.4,25.15 -22.04,-11.88 -23.14,-39.68 -6.18,-55.17"
         style="fill:#f9a8b3;fill-opacity:1;fill-rule:nonzero;stroke:none"
         id="path180" />
      <path
         d="m 1648.63,1768.99 c 0,0 209.77,-577.28 187.69,-812.818 -22.96,-245 -164.87,-659.59 -164.87,-659.59 h -130.84 c 0,0 76.81,400.27 84.96,640.887 8.89,262.311 -231.52,594.011 -246.2,796.181 126.66,16.62 269.26,35.34 269.26,35.34"
         style="fill:#406fbf;fill-opacity:1;fill-rule:nonzero;stroke:none"
         id="path182" />
      <path
         d="m 1572.06,1206.96 h -0.05 c -10.53,29.39 -22.06,58.82 -34.08,88.1 h 0.02 c 12.03,-29.27 23.57,-58.72 34.11,-88.1"
         style="fill:#c3c5c2;fill-opacity:1;fill-rule:nonzero;stroke:none"
         id="path184" />
      <path
         d="m 1537.95,1295.06 h -0.02 c -2.83,6.89 -5.69,13.78 -8.57,20.64 v 0.04 c 2.88,-6.88 5.75,-13.78 8.59,-20.68"
         style="fill:#acafad;fill-opacity:1;fill-rule:nonzero;stroke:none"
         id="path186" />
      <path
         d="m 1585.49,1167.52 c -4.26,13.12 -8.77,26.27 -13.48,39.44 h 0.05 c 4.7,-13.11 9.19,-26.18 13.44,-39.25 0,-0.07 0,-0.12 -0.01,-0.19"
         style="fill:#acafad;fill-opacity:1;fill-rule:nonzero;stroke:none"
         id="path188" />
      <path
         d="m 1585.5,1167.71 c -4.25,13.07 -8.74,26.14 -13.44,39.25 -10.54,29.38 -22.08,58.83 -34.11,88.1 -2.84,6.9 -5.71,13.8 -8.59,20.68 -0.88,58.12 -3.14,116.12 -5.99,169.94 44.65,-67.33 65.39,-164.69 62.13,-317.97"
         style="fill:#3563b7;fill-opacity:1;fill-rule:nonzero;stroke:none"
         id="path190" />
      <path
         d="m 1503.32,1749.92 c 0,0 60.06,-570.98 -0.9,-792.131 -66.76,-242.16 -258.71,-661.207 -258.71,-661.207 h -141.47 c 0,0 123.19,399.488 167.19,639.258 47.74,260.23 -16.38,586.04 -30.42,779.39 156.87,20.59 264.31,34.69 264.31,34.69"
         style="fill:#406fbf;fill-opacity:1;fill-rule:nonzero;stroke:none"
         id="path192" />
      <path
         d="m 1268.56,293.52 h -179.64 l 12.05,53.011 h 192.46 l -24.87,-53.011"
         style="fill:#406fbf;fill-opacity:1;fill-rule:nonzero;stroke:none"
         id="path194" />
      <path
         d="m 1268.56,293.52 h -179.64 l 12.05,53.011 h 192.46 l -10.33,-22.019 -1.18,-2.5 -13.36,-28.492"
         style="fill:#2251aa;fill-opacity:1;fill-rule:nonzero;stroke:none"
         id="path196" />
      <path
         d="m 1700.49,293.52 h -177.82 l 2.93,50.359 184.85,2.652 -9.96,-53.011"
         style="fill:#406fbf;fill-opacity:1;fill-rule:nonzero;stroke:none"
         id="path198" />
      <path
         d="m 1700.49,293.52 h -177.82 l 2.93,50.359 184.85,2.652 -4.14,-22.019 -0.47,-2.5 -5.35,-28.492"
         style="fill:#2251aa;fill-opacity:1;fill-rule:nonzero;stroke:none"
         id="path200" />
      <path
         d="m 1382.67,2702.36 c 1.55,-5.97 5.99,-9.8 9.91,-8.55 3.92,1.25 5.84,7.11 4.28,13.09 -1.55,5.98 -5.99,9.81 -9.91,8.55 -3.92,-1.25 -5.83,-7.11 -4.28,-13.09"
         style="fill:#17282f;fill-opacity:1;fill-rule:nonzero;stroke:none"
         id="path202" />
      <path
         d="m 1450.44,2724.01 c 1.55,-5.98 5.99,-9.81 9.91,-8.56 3.92,1.26 5.83,7.12 4.28,13.09 -1.55,5.98 -5.99,9.81 -9.91,8.56 -3.92,-1.25 -5.84,-7.11 -4.28,-13.09"
         style="fill:#17282f;fill-opacity:1;fill-rule:nonzero;stroke:none"
         id="path204" />
      <path
         d="m 1429.67,2714.15 c 0,0 22.59,-30.12 41.93,-41.97 -8.04,-13.26 -27.25,-14.51 -27.25,-14.51 l -14.68,56.48"
         style="fill:#f46878;fill-opacity:1;fill-rule:nonzero;stroke:none"
         id="path206" />
      <path
         d="m 1431.17,2635.59 c -28.21,-9.01 -46.15,6.14 -46.9,6.79 l -0.12,2.59 2.57,0.27 c 0.17,-0.15 17.3,-14.52 43.54,-6.14 0.97,0.31 1.96,-0.23 2.21,-1.2 0.25,-0.96 -0.33,-2 -1.3,-2.31"
         style="fill:#17282f;fill-opacity:1;fill-rule:nonzero;stroke:none"
         id="path208" />
      <path
         d="m 1356.58,2717.63 -2.3,0.03 c -1.86,0.68 -2.74,2.78 -1.97,4.7 7.73,19.23 24.17,23.49 24.9,23.65 1.98,0.48 3.87,-0.73 4.24,-2.71 0.37,-1.97 -0.91,-3.96 -2.89,-4.45 -0.54,-0.12 -13.37,-3.59 -19.53,-18.93 -0.45,-1.13 -1.38,-1.95 -2.45,-2.29"
         style="fill:#17282f;fill-opacity:1;fill-rule:nonzero;stroke:none"
         id="path210" />
      <path
         d="m 1474.08,2756.7 c -1.31,-0.42 -2.76,-0.09 -3.69,0.96 -10.41,11.77 -23.43,9.63 -23.98,9.52 -1.99,-0.34 -3.81,0.98 -4.05,2.98 -0.25,2 1.2,3.89 3.13,4.28 0.71,0.13 17.39,3.06 30.44,-11.69 1.3,-1.47 1.12,-3.8 -0.41,-5.21 l -1.44,-0.84"
         style="fill:#17282f;fill-opacity:1;fill-rule:nonzero;stroke:none"
         id="path212" />
      <path
         d="m 1248.6,2320.58 c 8.58,-33.5 17.58,-68.65 27.32,-102.72 9.79,-34.22 19.37,-68.46 30.24,-102.09 10.77,-33.65 22.49,-66.77 34.91,-98.98 12.61,-31.95 26.55,-63.33 42.28,-89.87 2.01,-3.13 3.91,-6.7 5.97,-9.52 l 3.04,-4.46 1.5,-2.25 0.02,-0.16 c 0.42,-1 4.74,-5.2 10.04,-8.9 10.78,-7.8 25.15,-16 39.99,-23.43 30.02,-14.87 62.69,-28.63 95.73,-41.48 66.2,-25.78 134.77,-49.8 202.8,-73.25 l -13.24,-56.46 c -73.46,10.77 -145.4,25.29 -217.56,44.81 -36.03,10.07 -72.02,20.79 -108.48,35.61 -18.31,7.54 -36.71,15.46 -56.4,27.6 -9.87,6.29 -20.21,13.16 -31.99,25.71 l -4.36,5.06 -2.53,3.26 -5.04,6.54 c -3.51,4.39 -6.21,8.69 -9.34,13.07 -23.62,34.77 -40.57,69.65 -56.22,104.7 -15.62,34.98 -28.77,70.31 -41.07,105.7 -24.66,71 -44.96,141.54 -61.7,215.19 l 114.09,26.32"
         style="fill:#f9a8b3;fill-opacity:1;fill-rule:nonzero;stroke:none"
         id="path214" />
      <path
         d="m 1120.47,2340.5 c -37.97,-88.63 23.8,-290.66 23.8,-290.66 l 185.05,47.44 c 0,0 -18.61,119.19 -49.46,210.78 -31.88,94.64 -130.16,100.69 -159.39,32.44"
         style="fill:#17282f;fill-opacity:1;fill-rule:nonzero;stroke:none"
         id="path216" />
      <path
         d="m 1193.18,192.898 c 12.94,-2.628 23.06,-2.148 27.5,1.391 1.95,1.563 2.89,3.731 2.87,6.641 0,1.422 -0.55,1.89 -1.03,2.152 -4.31,2.27 -18.88,-4.332 -29.34,-10.184 z m 14.59,-5.347 c -7.14,0 -14.76,1.48 -20.05,2.769 l -1.29,1.489 0.95,1.839 c 2.91,1.774 28.68,17.082 37.01,12.68 1.28,-0.68 2.81,-2.129 2.83,-5.168 0.02,-4.09 -1.45,-7.351 -4.35,-9.668 -3.67,-2.941 -9.22,-3.941 -15.1,-3.941"
         style="fill:#406fbf;fill-opacity:1;fill-rule:nonzero;stroke:none"
         id="path218" />
      <path
         d="m 1205.56,221.582 c -1.5,0 -2.92,-0.523 -4.3,-1.602 -5.63,-4.39 -9.07,-16.742 -10.54,-24.218 8.29,6.027 18.9,18.84 18.23,23.929 -0.07,0.457 -0.21,1.551 -2.57,1.84 z m -17.41,-31.312 -0.98,0.3 -0.73,1.668 c 0.13,0.953 3.27,23.242 12.67,30.571 2.44,1.91 5.1,2.711 7.93,2.351 4.34,-0.531 5.34,-3.23 5.54,-4.789 1.14,-8.609 -15.3,-25.539 -23.54,-29.883 l -0.89,-0.218"
         style="fill:#406fbf;fill-opacity:1;fill-rule:nonzero;stroke:none"
         id="path220" />
      <path
         d="m 1639.91,192.91 c 16.89,-2.84 29.64,-2.101 34.63,2.11 1.76,1.48 2.6,3.41 2.56,5.89 -0.02,0.949 -0.33,1.539 -1.05,1.949 -4.9,2.821 -23.03,-3.867 -36.14,-9.949 z m 17.86,-5.371 c -8.51,0 -17.65,1.461 -24.12,2.77 l -1.37,1.531 1.09,1.89 c 3.61,1.809 35.55,17.59 44.65,12.321 1.75,-1.012 2.7,-2.692 2.74,-4.871 0.06,-3.641 -1.27,-6.641 -3.95,-8.891 -4.22,-3.559 -11.38,-4.75 -19.04,-4.75"
         style="fill:#406fbf;fill-opacity:1;fill-rule:nonzero;stroke:none"
         id="path222" />
      <path
         d="m 1654.67,221.582 c -2.32,0 -4.45,-0.781 -6.49,-2.383 -6.76,-5.289 -10.23,-17.738 -11.58,-23.808 9.85,5.718 23.16,18.839 22.62,24.078 -0.05,0.429 -0.18,1.722 -3.45,2.062 z m -20.66,-31.312 -1.05,0.339 -0.66,1.672 c 0.13,0.867 3.42,21.68 13.72,29.75 3.14,2.457 6.6,3.528 10.33,3.141 5,-0.512 6.3,-3.063 6.51,-5.113 0.9,-8.739 -18.53,-25.438 -28.09,-29.629 l -0.76,-0.16"
         style="fill:#406fbf;fill-opacity:1;fill-rule:nonzero;stroke:none"
         id="path224" />
      <path
         d="m 1727.4,1764.92 77.26,12.73 -31.08,-96.13 c 0,0 -67.34,3.94 -67.32,40.74 l 21.14,42.66"
         style="fill:#f9a8b3;fill-opacity:1;fill-rule:nonzero;stroke:none"
         id="path226" />
      <path
         d="m 1877.89,1741.95 -29.59,-77.62 -74.72,17.19 31.08,96.13 73.23,-35.7"
         style="fill:#f9a8b3;fill-opacity:1;fill-rule:nonzero;stroke:none"
         id="path228" />
      <path
         d="m 3923.29,2840.28 -113.17,421.01 c -9.28,34.55 -44.82,55.03 -79.36,45.74 l -820.12,-220.45 c -34.55,-9.29 -55.03,-44.82 -45.74,-79.37 l 113.17,-421.01 c 9.29,-34.55 44.82,-55.02 79.37,-45.74 l 115.7,31.1 159.24,-91.77 -33.73,125.51 578.91,155.62 c 34.54,9.28 55.02,44.81 45.73,79.36"
         style="fill:#406fbf;fill-opacity:1;fill-rule:nonzero;stroke:none"
         id="path230" />
      <path
         d="m 3332.38,2479.79 -159.24,91.77 -3.94,-1.06 -111.76,-30.04 c -5.64,-1.51 -11.29,-2.23 -16.86,-2.23 -28.58,0 -54.74,19.05 -62.51,47.97 l -113.17,421.01 c -1.51,5.6 -2.23,11.23 -2.24,16.76 -0.04,28.62 19.03,54.83 47.98,62.61 l 820.12,220.45 c 5.63,1.51 11.29,2.24 16.85,2.24 28.58,0 54.74,-19.06 62.51,-47.98 l 113.17,-421.01 c 1.51,-5.6 2.23,-11.23 2.24,-16.76 0.04,-28.62 -19.03,-54.82 -47.97,-62.6 l -275.43,-74.04 -109.93,-29.55 -55.38,-14.89 -42.65,-11.46 -95.52,-25.68 33.73,-125.51"
         style="fill:#3563b7;fill-opacity:1;fill-rule:nonzero;stroke:none"
         id="path232" />
      <path
         d="m 4257.37,1958.81 43.85,284.96 c 3.6,23.38 -12.44,45.26 -35.82,48.85 l -555.1,85.42 c -23.38,3.6 -45.25,-12.44 -48.85,-35.82 l -43.85,-284.96 c -3.6,-23.39 12.44,-45.25 35.82,-48.85 l 78.32,-12.06 71.88,-98.02 13.07,84.95 391.83,-60.29 c 23.38,-3.6 45.25,12.44 48.85,35.82"
         style="fill:#406fbf;fill-opacity:1;fill-rule:nonzero;stroke:none"
         id="path234" />
      <path
         d="m 3803.62,1898.33 -71.88,98.02 -4.02,0.62 -74.3,11.44 c -21.19,3.26 -36.35,21.52 -36.32,42.33 0,2.15 0.16,4.33 0.5,6.52 l 43.85,284.96 c 3.26,21.18 21.5,36.33 42.29,36.33 2.16,0 4.36,-0.17 6.56,-0.51 l 555.1,-85.42 c 21.19,-3.26 36.35,-21.53 36.33,-42.33 -0.01,-2.15 -0.17,-4.33 -0.51,-6.52 l -43.85,-284.96 c -3.26,-21.18 -21.5,-36.33 -42.28,-36.33 -2.17,0 -4.36,0.17 -6.57,0.51 l -156.06,24.01 -235.77,36.28 -3.18,-20.65 -9.89,-64.3"
         style="fill:#6d97d6;fill-opacity:1;fill-rule:nonzero;stroke:none"
         id="path236" />
      <path
         d="m 4237.65,2420.77 -71.38,510.36 c -5.86,41.87 -44.56,71.07 -86.43,65.21 l -994.15,-139.05 c -41.88,-5.86 -71.08,-44.56 -65.22,-86.43 l 71.39,-510.35 c 5.85,-41.88 44.55,-71.08 86.43,-65.22 l 140.26,19.62 173.41,-130.86 -21.28,152.14 701.75,98.16 c 41.88,5.85 71.08,44.55 65.22,86.42"
         style="fill:#406fbf;fill-opacity:1;fill-rule:nonzero;stroke:none"
         id="path238" />
      <path
         d="m 3184.31,2633.03 56.28,7.87 88.53,-97.63 -15.09,107.91 56.8,7.94 27.28,-195.03 -56.8,-7.95 -88.02,96.87 14.98,-107.08 -56.68,-7.93 -27.28,195.03"
         style="fill:#ffffff;fill-opacity:1;fill-rule:nonzero;stroke:none"
         id="path240" />
      <path
         d="m 3410.74,2664.7 161.51,22.59 5.82,-41.64 -101.1,-14.14 4.33,-31 93.79,13.12 5.57,-39.78 -93.79,-13.12 5.37,-38.44 104.04,14.55 6.18,-44.17 -164.44,-23 -27.28,195.03"
         style="fill:#ffffff;fill-opacity:1;fill-rule:nonzero;stroke:none"
         id="path242" />
      <path
         d="m 3587.55,2689.43 57.24,8.01 35.88,-106.3 14.9,113.4 57.02,7.98 45.5,-104.81 5.38,111.93 56.94,7.96 -15.71,-201.05 -59.1,-8.26 -51.38,118.01 -16.91,-127.56 -59.09,-8.27 -70.67,188.96"
         style="fill:#ffffff;fill-opacity:1;fill-rule:nonzero;stroke:none"
         id="path244" />
      <path
         d="m 3887.84,2598.37 56.84,11.62 c 2.54,-9.14 6.07,-15.88 10.56,-20.23 7.31,-7.02 16.73,-9.73 28.26,-8.12 8.61,1.21 14.96,4.15 19.05,8.84 4.09,4.69 5.76,9.69 5.02,15.01 -0.71,5.06 -3.56,9.27 -8.55,12.64 -4.99,3.37 -15.81,5.7 -32.45,6.99 -27.26,2.25 -47.21,7.5 -59.85,15.77 -12.73,8.26 -20.16,20.02 -22.3,35.27 -1.4,10.02 0.18,19.9 4.75,29.62 4.56,9.73 12.31,17.96 23.26,24.69 10.95,6.73 26.58,11.51 46.89,14.36 24.92,3.48 44.58,1.51 58.95,-5.93 14.38,-7.44 24.23,-21.1 29.54,-40.97 l -56.34,-11.27 c -2.74,8.57 -6.8,14.51 -12.19,17.82 -5.4,3.32 -12.35,4.38 -20.86,3.19 -7.01,-0.98 -12.08,-3.2 -15.21,-6.67 -3.13,-3.47 -4.4,-7.33 -3.81,-11.59 0.44,-3.1 2.29,-5.69 5.57,-7.76 3.19,-2.18 10.27,-3.63 21.22,-4.36 27.14,-1.99 46.81,-5.1 59.02,-9.31 12.21,-4.22 21.51,-10.26 27.9,-18.14 6.39,-7.88 10.33,-17.14 11.82,-27.78 1.75,-12.51 -0.09,-24.52 -5.54,-36.04 -5.44,-11.52 -13.99,-20.88 -25.64,-28.07 -11.65,-7.19 -26.93,-12.11 -45.82,-14.75 -33.17,-4.64 -57.03,-1.47 -71.59,9.52 -14.56,10.98 -24.06,26.2 -28.5,45.65"
         style="fill:#ffffff;fill-opacity:1;fill-rule:nonzero;stroke:none"
         id="path246" />
    </g>
  </g>
</svg>
