<?xml version="1.0" encoding="UTF-8" standalone="no"?>
<!-- Created with Inkscape (http://www.inkscape.org/) -->

<svg
   version="1.1"
   id="svg2"
   width="4000"
   height="2666.6667"
   viewBox="0 0 4000 2666.6667"
   sodipodi:docname="Mar-Business_2.eps"
   xmlns:inkscape="http://www.inkscape.org/namespaces/inkscape"
   xmlns:sodipodi="http://sodipodi.sourceforge.net/DTD/sodipodi-0.dtd"
   xmlns="http://www.w3.org/2000/svg"
   xmlns:svg="http://www.w3.org/2000/svg">
  <defs
     id="defs6" />
  <sodipodi:namedview
     id="namedview4"
     pagecolor="#ffffff"
     bordercolor="#000000"
     borderopacity="0.25"
     inkscape:showpageshadow="2"
     inkscape:pageopacity="0.0"
     inkscape:pagecheckerboard="0"
     inkscape:deskcolor="#d1d1d1" />
  <g
     id="g8"
     inkscape:groupmode="layer"
     inkscape:label="ink_ext_XXXXXX"
     transform="matrix(1.3333333,0,0,-1.3333333,0,2666.6667)">
    <g
       id="g10"
       transform="scale(0.1)">
      <path
         d="M 0,0 H 30000 V 20000 H 0 Z"
         style="fill:#ffffff;fill-opacity:1;fill-rule:nonzero;stroke:none"
         id="path12" />
      <path
         d="m 25983.9,9963.9 c -1102.7,794.5 -2424.1,1178.9 -3640.6,1754.3 -1170,553.5 -2002.5,1442.7 -3049.3,2175.4 -1710.4,1197.4 -3687.4,2095.1 -5699.3,2643 -2034.5,554.1 -4519.76,860.9 -6374.26,-367.2 -912.12,-604 -1654.46,-1540.8 -1956.93,-2598.7 -359.91,-1258.8 -7.71,-2544.9 164.93,-3802.9 140.27,-1022.2 -516.01,-1586.1 -1289.25,-2167 -1810.5,-1360 -1760.21,-3821 -641.49,-5584.9 h 23301.1 c 1383.6,2506.7 1992.1,5925.5 -814.9,7948"
         style="fill:#f6f5f5;fill-opacity:1;fill-rule:nonzero;stroke:none"
         id="path14" />
      <path
         d="m 4477.67,9836 c 0,-477 -386.67,-863.7 -863.65,-863.7 -476.98,0 -863.65,386.7 -863.65,863.7 0,476.9 386.67,863.6 863.65,863.6 476.98,0 863.65,-386.7 863.65,-863.6"
         style="fill:#f6f5f5;fill-opacity:1;fill-rule:nonzero;stroke:none"
         id="path16" />
      <path
         d="m 25341.2,14122.3 c 0,-705.1 -571.6,-1276.7 -1276.6,-1276.7 -705.1,0 -1276.7,571.6 -1276.7,1276.7 0,705 571.6,1276.6 1276.7,1276.6 705,0 1276.6,-571.6 1276.6,-1276.6"
         style="fill:#f6f5f5;fill-opacity:1;fill-rule:nonzero;stroke:none"
         id="path18" />
      <path
         d="m 4151.91,12112.5 c 0,-211.3 -171.29,-382.6 -382.58,-382.6 -211.3,0 -382.59,171.3 -382.59,382.6 0,211.3 171.29,382.6 382.59,382.6 211.29,0 382.58,-171.3 382.58,-382.6"
         style="fill:#f6f5f5;fill-opacity:1;fill-rule:nonzero;stroke:none"
         id="path20" />
      <path
         d="m 25436.4,11900.4 c 0,-211.3 -171.3,-382.6 -382.6,-382.6 -211.3,0 -382.5,171.3 -382.5,382.6 0,211.3 171.2,382.6 382.5,382.6 211.3,0 382.6,-171.3 382.6,-382.6"
         style="fill:#f6f5f5;fill-opacity:1;fill-rule:nonzero;stroke:none"
         id="path22" />
      <path
         d="m 2721.41,2075.3 c -1108.09,945.4 -1118.28,2599.5 -636.82,3819.4 536.07,1358.4 1792.65,2476.6 3447.53,3067.8 40.2,14.2 80.37,28.4 120.63,42.4 l 14.92,-43 c -40.13,-13.9 -80.21,-28 -120.28,-42.2 C 3904.87,8332.9 2658.13,7224.2 2126.87,5878.1 1651.34,4673.2 1659.89,3040.7 2750.93,2109.9 l -29.52,-34.6"
         style="fill:#dadada;fill-opacity:1;fill-rule:nonzero;stroke:none"
         id="path24" />
      <path
         d="m 26043.7,2022.4 -40.4,20.8 c 818.4,1590.7 1303.1,3194.9 1401.8,4639.2 97.2,1423.8 -185.2,2598.2 -816.8,3396.1 -573.2,724.2 -1713.8,1473.7 -3892.7,932.4 l -10.9,44.1 c 2202.2,547.1 3357.7,-213.7 3939.2,-948.3 638.8,-806.9 924.6,-1992.1 826.5,-3427.5 -99.1,-1450.3 -585.5,-3060.6 -1406.7,-4656.8"
         style="fill:#dadada;fill-opacity:1;fill-rule:nonzero;stroke:none"
         id="path26" />
      <path
         d="m 7825.51,14739.5 -44.03,11.3 c 3.06,11.9 77.77,296.8 327.55,673.5 230.12,347 658.53,838.3 1392.79,1208.3 840.88,423.8 1899.28,603.6 3145.78,534.5 1559.8,-86.6 3419.8,-565.5 5528.3,-1423.6 l -17.1,-42.1 c -2103.9,856.2 -3959,1334 -5513.7,1420.3 -1238.7,68.8 -2289.2,-109.5 -3122.82,-529.7 -725.36,-365.5 -1148.28,-850.4 -1375.36,-1192.8 -245.59,-370.3 -320.67,-656.8 -321.41,-659.7"
         style="fill:#dadada;fill-opacity:1;fill-rule:nonzero;stroke:none"
         id="path28" />
      <path
         d="M 23874.3,14417 V 2980.4 c 0,-159.6 -129.6,-289.1 -289.1,-289.1 H 7331.23 c -159.55,0 -289.1,129.5 -289.1,289.1 V 14417 c 0,159.5 129.55,289.1 289.1,289.1 H 23585.2 c 159.5,0 289.1,-129.6 289.1,-289.1"
         style="fill:#d3dfff;fill-opacity:1;fill-rule:nonzero;stroke:none"
         id="path30" />
      <path
         d="M 7553.36,13750.2 V 4166.1 H 23362.9 v 9584.1 H 7553.36"
         style="fill:#ffffff;fill-opacity:1;fill-rule:nonzero;stroke:none"
         id="path32" />
      <path
         d="M 7576.08,4188.8 H 23340.2 v 9538.7 H 7576.08 Z M 23385.7,4143.3 H 7530.63 v 9629.6 H 23385.7 V 4143.3"
         style="fill:#86a7ff;fill-opacity:1;fill-rule:nonzero;stroke:none"
         id="path34" />
      <path
         d="M 23362.9,14346.2 H 7553.36 v -596 H 23362.9 v 596"
         style="fill:#ffffff;fill-opacity:1;fill-rule:nonzero;stroke:none"
         id="path36" />
      <path
         d="M 7576.08,13772.9 H 23340.2 v 550.5 H 7576.08 Z m 15809.62,-45.4 H 7530.63 v 641.4 H 23385.7 v -641.4"
         style="fill:#86a7ff;fill-opacity:1;fill-rule:nonzero;stroke:none"
         id="path38" />
      <path
         d="m 8296.51,14140.4 c -50.85,0 -92.22,-41.4 -92.22,-92.2 0,-50.9 41.37,-92.3 92.22,-92.3 50.88,0 92.24,41.4 92.24,92.3 0,50.8 -41.36,92.2 -92.24,92.2 z m 0,-229.9 c -75.9,0 -137.67,61.8 -137.67,137.7 0,75.9 61.77,137.7 137.67,137.7 75.93,0 137.7,-61.8 137.7,-137.7 0,-75.9 -61.77,-137.7 -137.7,-137.7"
         style="fill:#86a7ff;fill-opacity:1;fill-rule:nonzero;stroke:none"
         id="path40" />
      <path
         d="m 8756.33,14140.4 c -50.85,0 -92.22,-41.4 -92.22,-92.2 0,-50.9 41.37,-92.3 92.22,-92.3 50.85,0 92.22,41.4 92.22,92.3 0,50.8 -41.37,92.2 -92.22,92.2 z m 0,-229.9 c -75.91,0 -137.68,61.8 -137.68,137.7 0,75.9 61.77,137.7 137.68,137.7 75.91,0 137.67,-61.8 137.67,-137.7 0,-75.9 -61.76,-137.7 -137.67,-137.7"
         style="fill:#86a7ff;fill-opacity:1;fill-rule:nonzero;stroke:none"
         id="path42" />
      <path
         d="m 9216.14,14140.4 c -50.85,0 -92.21,-41.4 -92.21,-92.2 0,-50.9 41.36,-92.3 92.21,-92.3 50.85,0 92.22,41.4 92.22,92.3 0,50.8 -41.37,92.2 -92.22,92.2 z m 0,-229.9 c -75.91,0 -137.67,61.8 -137.67,137.7 0,75.9 61.76,137.7 137.67,137.7 75.91,0 137.68,-61.8 137.68,-137.7 0,-75.9 -61.77,-137.7 -137.68,-137.7"
         style="fill:#86a7ff;fill-opacity:1;fill-rule:nonzero;stroke:none"
         id="path44" />
      <path
         d="m 6212.18,2014.1 h 18491.9 v 857.602 H 6212.18 Z"
         style="fill:#d3dfff;fill-opacity:1;fill-rule:nonzero;stroke:none"
         id="path46" />
      <path
         d="M 6237.71,2039.7 H 24678.6 v 806.5 H 6237.71 V 2039.7 M 24729.7,1988.6 H 6186.65 v 908.6 H 24729.7 v -908.6"
         style="fill:#86a7ff;fill-opacity:1;fill-rule:nonzero;stroke:none"
         id="path48" />
      <path
         d="M 16272.3,3279 H 14644 c -101.6,0 -184.7,83.1 -184.7,184.7 v 110.4 c 0,101.6 83.1,184.7 184.7,184.7 h 1628.3 c 101.6,0 184.7,-83.1 184.7,-184.7 v -110.4 c 0,-101.6 -83.1,-184.7 -184.7,-184.7"
         style="fill:#ffffff;fill-opacity:1;fill-rule:nonzero;stroke:none"
         id="path50" />
      <path
         d="m 14669.2,3736.1 c -103.2,0 -187.2,-84 -187.2,-187.2 v -60 c 0,-103.2 84,-187.2 187.2,-187.2 h 1577.9 c 103.2,0 187.2,84 187.2,187.2 v 60 c 0,103.2 -84,187.2 -187.2,187.2 z m 1577.9,-479.8 h -1577.9 c -128.3,0 -232.7,104.3 -232.7,232.6 v 60 c 0,128.2 104.4,232.6 232.7,232.6 h 1577.9 c 128.3,0 232.7,-104.4 232.7,-232.6 v -60 c 0,-128.3 -104.4,-232.6 -232.7,-232.6"
         style="fill:#86a7ff;fill-opacity:1;fill-rule:nonzero;stroke:none"
         id="path52" />
      <path
         d="m 9794.53,11013.5 c -384.29,0 -696.93,-312.6 -696.93,-696.9 v -49.6 c 0,-384.3 312.64,-696.9 696.93,-696.9 H 21121.8 c 384.2,0 696.9,312.6 696.9,696.9 v 49.6 c 0,384.3 -312.7,696.9 -696.9,696.9 z M 21121.8,9524.6 H 9794.53 c -409.35,0 -742.39,333 -742.39,742.4 v 49.6 c 0,409.3 333.04,742.4 742.39,742.4 H 21121.8 c 409.3,0 742.3,-333.1 742.3,-742.4 v -49.6 c 0,-409.4 -333,-742.4 -742.3,-742.4"
         style="fill:#86a7ff;fill-opacity:1;fill-rule:nonzero;stroke:none"
         id="path54" />
      <path
         d="M 11139.2,10014.4 H 9769.51 c -125.68,0 -228.51,102.9 -228.51,228.5 v 97.7 c 0,125.7 102.83,228.6 228.51,228.6 h 1369.69 c 125.7,0 228.5,-102.9 228.5,-228.6 v -97.7 c 0,-125.6 -102.8,-228.5 -228.5,-228.5"
         style="fill:#d3dfff;fill-opacity:1;fill-rule:nonzero;stroke:none"
         id="path56" />
      <path
         d="m 13358.5,10014.4 h -1197.3 c -127.4,0 -231.6,104.2 -231.6,231.6 v 91.6 c 0,127.4 104.2,231.6 231.6,231.6 h 1197.3 c 127.3,0 231.5,-104.2 231.5,-231.6 v -91.6 c 0,-127.4 -104.2,-231.6 -231.5,-231.6"
         style="fill:#d3dfff;fill-opacity:1;fill-rule:nonzero;stroke:none"
         id="path58" />
      <path
         d="m 15910.2,10014.4 h -1613.3 c -134.2,0 -244.1,109.9 -244.1,244.1 v 66.6 c 0,134.2 109.9,244.1 244.1,244.1 h 1613.3 c 134.2,0 244.1,-109.9 244.1,-244.1 v -66.6 c 0,-134.2 -109.9,-244.1 -244.1,-244.1"
         style="fill:#d3dfff;fill-opacity:1;fill-rule:nonzero;stroke:none"
         id="path60" />
      <path
         d="m 19450.6,10017.4 h -2397.2 c -134.3,0 -244.1,109.9 -244.1,244.1 v 66.6 c 0,134.2 109.8,244.1 244.1,244.1 h 2397.2 c 134.3,0 244.1,-109.9 244.1,-244.1 v -66.6 c 0,-134.2 -109.8,-244.1 -244.1,-244.1"
         style="fill:#d3dfff;fill-opacity:1;fill-rule:nonzero;stroke:none"
         id="path62" />
      <path
         d="m 17367.2,11811.2 h -3818.1 v 399.8 h 3818.1 v -399.8"
         style="fill:#86a7ff;fill-opacity:1;fill-rule:nonzero;stroke:none"
         id="path64" />
      <path
         d="m 14855.8,5795.3 h -676.5 v 1295.5 h 676.5 V 5795.3"
         style="fill:#adc3ff;fill-opacity:1;fill-rule:nonzero;stroke:none"
         id="path66" />
      <path
         d="m 16251.2,5795.3 h -676.6 v 2066.1 h 676.6 V 5795.3"
         style="fill:#d3dfff;fill-opacity:1;fill-rule:nonzero;stroke:none"
         id="path68" />
      <path
         d="M 17646.6,5795.3 H 16970 V 8315 h 676.6 V 5795.3"
         style="fill:#adc3ff;fill-opacity:1;fill-rule:nonzero;stroke:none"
         id="path70" />
      <path
         d="m 19041.9,5795.3 h -676.5 v 1423.3 h 676.5 V 5795.3"
         style="fill:#d3dfff;fill-opacity:1;fill-rule:nonzero;stroke:none"
         id="path72" />
      <path
         d="m 20437.3,5795.3 h -676.5 v 2245.5 h 676.5 V 5795.3"
         style="fill:#adc3ff;fill-opacity:1;fill-rule:nonzero;stroke:none"
         id="path74" />
      <path
         d="m 21832.7,5795.3 h -676.6 v 3098.5 h 676.6 V 5795.3"
         style="fill:#d3dfff;fill-opacity:1;fill-rule:nonzero;stroke:none"
         id="path76" />
      <path
         d="M 12691.6,8728.8 H 8873.46 v 243.8 h 3818.14 v -243.8"
         style="fill:#e5ecff;fill-opacity:1;fill-rule:nonzero;stroke:none"
         id="path78" />
      <path
         d="M 12691.6,5795.3 H 8873.46 V 8288.1 H 12691.6 V 5795.3"
         style="fill:#e5ecff;fill-opacity:1;fill-rule:nonzero;stroke:none"
         id="path80" />
      <path
         d="m 10955.5,7361.5 c -143.8,56.8 -291.6,12.2 -397.2,-91 -96.1,-94 -109.7,-226.8 -154.9,-345.4 93.5,-25.6 177.6,-80.9 279.5,-65.1 132.4,20.7 135.9,144.2 210.9,228.3 64.3,72.1 141.3,118.6 233.3,131 -39.5,58.2 -87.7,109.1 -171.6,142.2"
         style="fill:#86a7ff;fill-opacity:1;fill-rule:nonzero;stroke:none"
         id="path82" />
      <path
         d="m 12036.9,7490.8 c -130.2,-28.3 -267,-74.6 -359.9,-169.5 -79.8,-81.6 -77,-223.7 -135,-309.5 65.5,-43.6 139.2,-64 211.1,-25.2 70.3,38 112.9,123.5 188.7,160.8 61,29.9 148.5,48.9 214.8,60.7 15.2,2.8 30.8,4.5 46.3,6.6 v 303 c -55.6,-6.3 -111,-14.9 -166,-26.9"
         style="fill:#86a7ff;fill-opacity:1;fill-rule:nonzero;stroke:none"
         id="path84" />
      <path
         d="m 12156.6,7208.1 c -66.3,-11.8 -153.8,-30.8 -214.8,-60.7 -75.8,-37.3 -118.4,-122.8 -188.7,-160.8 -71.9,-38.8 -145.6,-18.4 -211.1,25.2 -25.8,17.2 -50.4,37.9 -73,60.2 -89.6,88.3 -117.6,138.2 -259.3,149.7 -28.9,2.3 -56.3,1.1 -82.6,-2.4 -92,-12.4 -169,-58.9 -233.3,-131 -75,-84.1 -78.5,-207.6 -210.9,-228.3 -101.9,-15.8 -186,39.5 -279.5,65.1 -37.3,10.1 -76.1,15.7 -118.1,9.9 -98.6,-13.5 -161,-72.7 -229.8,-117.6 -47.9,-31.3 -98.78,-55.7 -167.27,-52.7 -152.87,6.8 -350.01,94.9 -526.08,100.5 v -680.8 h 2840.75 v 1030.3 c -15.5,-2.1 -31.1,-3.8 -46.3,-6.6"
         style="fill:#adc3ff;fill-opacity:1;fill-rule:nonzero;stroke:none"
         id="path86" />
      <path
         d="m 10055.5,6817.4 c -11.2,9.7 -21.8,20.3 -31.3,32.1 -70.33,87.3 -75.97,198.1 -153.81,279.9 -151.51,159.3 -358.45,96.3 -508.24,-39.2 v -225 c 176.07,-5.6 373.21,-93.7 526.08,-100.5 68.49,-3 119.37,21.4 167.27,52.7"
         style="fill:#86a7ff;fill-opacity:1;fill-rule:nonzero;stroke:none"
         id="path88" />
      <path
         d="m 5953.63,8438.3 -725.92,-142.3 165.68,1067.5 446.37,-9.1 c -2.85,-18.8 -5.7,-37 -7.41,-55.8 -16.51,-143.5 -7.97,-287.5 10.25,-416.2 36.44,-252.8 111.03,-444.1 111.03,-444.1"
         style="fill:#f9b384;fill-opacity:1;fill-rule:nonzero;stroke:none"
         id="path90" />
      <path
         d="M 5842.6,8882.4 C 5563.62,9013.9 5460,9290.1 5460,9290.1 l 372.35,8.5 c -16.51,-143.5 -7.97,-287.5 10.25,-416.2"
         style="fill:#102048;fill-opacity:1;fill-rule:nonzero;stroke:none"
         id="path92" />
      <path
         d="m 5996.14,9971 c 28.46,-99.6 189.78,-730.6 -104.38,-801.8 -294.16,-71.2 -597.81,199.3 -597.81,199.3 l 99.63,607.3 427.01,128.1 175.55,-132.9"
         style="fill:#f9b384;fill-opacity:1;fill-rule:nonzero;stroke:none"
         id="path94" />
      <path
         d="m 5606.5,9627.6 c 0,0 76.49,504.7 389.63,343.4 -11.18,5.8 -27.42,56.2 -34.4,67.6 -31.61,51.7 -72.21,98.8 -121.26,134.7 -178.22,130.6 -478.66,83.2 -622.44,-67.1 -141.54,-147.9 -145.87,-410.7 -72.96,-601.8 11.79,-30.9 26.72,-60.5 44.6,-88.4 16.25,-25.2 35.51,-46.3 57.18,-67.1 18.61,-17.9 158.32,-127.9 159.78,-43.3 3.56,206.4 199.87,322 199.87,322"
         style="fill:#eb5d60;fill-opacity:1;fill-rule:nonzero;stroke:none"
         id="path96" />
      <path
         d="m 5674.16,9710.5 c 53.97,-66 54.53,-154.8 1.27,-198.4 -53.27,-43.5 -140.19,-25.4 -194.16,40.6 -53.97,66 -54.54,154.8 -1.27,198.4 53.26,43.5 140.19,25.4 194.16,-40.6"
         style="fill:#f9b384;fill-opacity:1;fill-rule:nonzero;stroke:none"
         id="path98" />
      <path
         d="m 6121.66,9612.5 c 0,-39.8 -29.68,-72 -66.29,-72 -36.61,0 -66.29,32.2 -66.29,72 0,39.7 29.68,71.9 66.29,71.9 36.61,0 66.29,-32.2 66.29,-71.9"
         style="fill:#f9b384;fill-opacity:1;fill-rule:nonzero;stroke:none"
         id="path100" />
      <path
         d="m 5104.16,4320.3 -863.51,-370.1 c 0,0 711.68,-1812.4 920.45,-1926.3 208.76,-113.9 104.38,892 246.71,1195.6 l 180.3,711.7 -483.95,389.1"
         style="fill:#102048;fill-opacity:1;fill-rule:nonzero;stroke:none"
         id="path102" />
      <path
         d="m 5404.66,3174.2 -374.81,26 6.3,90.8 374.81,-26.1 -6.3,-90.7"
         style="fill:#ffffff;fill-opacity:1;fill-rule:nonzero;stroke:none"
         id="path104" />
      <path
         d="m 4885.91,4453.1 521.9,-1233.6 c 0,0 2030.67,1062.8 2533.6,2030.7 L 7144.32,6294 4885.91,4453.1"
         style="fill:#7d69ed;fill-opacity:1;fill-rule:nonzero;stroke:none"
         id="path106" />
      <path
         d="m 7609.29,3456.7 c 0,0 948.91,-37.9 1385.41,711.7 l -967.89,142.4 -417.52,-854.1"
         style="fill:#102048;fill-opacity:1;fill-rule:nonzero;stroke:none"
         id="path108" />
      <path
         d="M 9093.54,3327.2 8023.06,2949 l -86.37,305.5 -156.82,553.2 892.29,422.2 62.73,-134.5 358.65,-768.2"
         style="fill:#f9b384;fill-opacity:1;fill-rule:nonzero;stroke:none"
         id="path110" />
      <path
         d="M 10446.5,2014.4 9274.62,2939.6 9093.73,3327 8023.15,2949.2 8287.76,2014.4 h 2158.74"
         style="fill:#102048;fill-opacity:1;fill-rule:nonzero;stroke:none"
         id="path112" />
      <path
         d="m 9068.41,2603.1 -71.51,56.1 241.97,308.4 71.52,-56.1 -241.98,-308.4"
         style="fill:#ffffff;fill-opacity:1;fill-rule:nonzero;stroke:none"
         id="path114" />
      <path
         d="m 8734.89,4095.4 -798.2,-840.9 -156.82,553.2 892.29,422.2 62.73,-134.5"
         style="fill:#e28b6d;fill-opacity:1;fill-rule:nonzero;stroke:none"
         id="path116" />
      <path
         d="m 8994.9,4168.6 c -504.56,-127.3 -965.93,-365 -1385.49,-711.9 l -721.37,1897.8 c 0,0 -1455.49,-1387.3 -2324.59,-1157.7 -825.93,218.2 -465.47,1585 -465.47,1585 1134.11,794.1 2938.24,1860.5 3728.71,1015.9 4.09,-3.6 7.27,-6.8 10.46,-10.4 161.82,-177.8 344.55,-529.1 516.37,-918.2 342.73,-775 641.38,-1700.5 641.38,-1700.5"
         style="fill:#7d69ed;fill-opacity:1;fill-rule:nonzero;stroke:none"
         id="path118" />
      <path
         d="m 8353.52,5869.1 c -786.38,-185 -1595.48,688.6 -1595.48,688.6 l 812.74,266.8 255.91,-26.8 c 4.09,-3.6 7.27,-6.8 10.46,-10.4 161.82,-177.8 344.55,-529.1 516.37,-918.2"
         style="fill:#5b4dad;fill-opacity:1;fill-rule:nonzero;stroke:none"
         id="path120" />
      <path
         d="M 7588.18,3448.7 6879.03,5314.3 C 6725.26,5168.1 5888.46,4402.5 5006.21,4169.9 l -11.59,44 c 960.3,253.1 1868.34,1147.7 1877.4,1156.7 l 24.83,24.7 733.81,-1930.5 -42.48,-16.1"
         style="fill:#5b4dad;fill-opacity:1;fill-rule:nonzero;stroke:none"
         id="path122" />
      <path
         d="m 5267.55,8834.6 -318.64,-1030 -428.65,-1385.5 c 0,0 -312.73,-112.3 -588.64,-77.3 -243.65,30.9 -458.65,177.3 -400.47,619.6 128.19,975 1736.4,1873.2 1736.4,1873.2"
         style="fill:#fbc343;fill-opacity:1;fill-rule:nonzero;stroke:none"
         id="path124" />
      <path
         d="M 4948.91,7804.6 4520.26,6419.1 c 0,0 -312.73,-112.3 -588.64,-77.3 231.36,1422.3 996.83,2028.2 996.83,2028.2 l 20.46,-565.4"
         style="fill:#e49b31;fill-opacity:1;fill-rule:nonzero;stroke:none"
         id="path126" />
      <path
         d="m 8384.88,7815 -237.27,-903.6 -800.93,755.4 317.73,532.8 429.56,-229.1 290.91,-155.5"
         style="fill:#fbc343;fill-opacity:1;fill-rule:nonzero;stroke:none"
         id="path128" />
      <path
         d="m 7666.22,8198.6 303.96,485.8 614.11,261.8 -201.22,-1133 -716.85,385.4"
         style="fill:#f9b384;fill-opacity:1;fill-rule:nonzero;stroke:none"
         id="path130" />
      <path
         d="m 10649.9,9128.2 c -161.3,38.7 -306.8,32.3 -438.2,-15.9 -86.8,-31.8 -167.7,-82.3 -242.24,-150.4 L 9672.64,9650 c 103.18,18.2 197.28,49.1 282.28,94.1 123.18,65.1 225.88,159.1 305.88,286.9 l 389.1,-902.8"
         style="fill:#1f3c88;fill-opacity:1;fill-rule:nonzero;stroke:none"
         id="path132" />
      <path
         d="m 9970.16,8962.4 -296.58,688.1 -4369.87,-2074.4 157.92,-366.3 4508.53,1752.6 -296.58,688.1 296.58,-688.1"
         style="fill:#1f3c88;fill-opacity:1;fill-rule:nonzero;stroke:none"
         id="path134" />
      <path
         d="m 10649.9,9128.2 c -161.3,38.7 -306.8,32.3 -438.2,-15.9 l -256.78,631.8 c 123.18,65.1 225.88,159.1 305.88,286.9 l 389.1,-902.8"
         style="fill:#102048;fill-opacity:1;fill-rule:nonzero;stroke:none"
         id="path136" />
      <path
         d="m 13326.7,8275.1 c -1184,-510.3 -2557.5,35.7 -3067.8,1219.7 -510.39,1184 35.7,2557.5 1219.7,3067.9 1183.9,510.3 2557.4,-35.8 3067.8,-1219.7 510.3,-1184 -35.7,-2557.5 -1219.7,-3067.9"
         style="fill:#1f3c88;fill-opacity:1;fill-rule:nonzero;stroke:none"
         id="path138" />
      <path
         d="m 13172.5,8632.9 c -986.4,-425.2 -2130.7,29.7 -2555.9,1016.1 -425.2,986.4 29.8,2130.7 1016.2,2555.9 986.4,425.2 2130.7,-29.7 2555.9,-1016.1 425.2,-986.4 -29.8,-2130.8 -1016.2,-2555.9"
         style="fill:#ffffff;fill-opacity:1;fill-rule:nonzero;stroke:none"
         id="path140" />
      <path
         d="m 10629.7,11218.1 h 3545.4 c -7.6,17 -15.3,34.1 -23.4,50.8 h -3497.8 c -8.2,-16.9 -16.5,-33.7 -24.2,-50.8"
         style="fill:#86a7ff;fill-opacity:1;fill-rule:nonzero;stroke:none"
         id="path142" />
      <path
         d="m 14169.3,9606 h -3532.8 c 7.8,-17 15.3,-34.2 23.6,-50.8 h 3484.7 c 8.3,16.8 16.6,33.7 24.5,50.8"
         style="fill:#86a7ff;fill-opacity:1;fill-rule:nonzero;stroke:none"
         id="path144" />
      <path
         d="m 10950.2,10392.3 v 39.5 c 0,159.5 -130.5,290 -290,290 h -178.4 c -32.2,-202.6 -32.7,-411.5 1.8,-619.5 h 176.6 c 159.5,0 290,130.5 290,290"
         style="fill:#d3dfff;fill-opacity:1;fill-rule:nonzero;stroke:none"
         id="path146" />
      <path
         d="m 11871.6,10721.8 c -161.6,0 -293.8,-132.2 -293.8,-293.9 v -31.8 c 0,-161.6 132.2,-293.8 293.8,-293.8 h 1266.8 c 161.6,0 293.8,132.2 293.8,293.8 v 31.8 c 0,161.7 -132.2,293.9 -293.8,293.9 h -1266.8"
         style="fill:#d3dfff;fill-opacity:1;fill-rule:nonzero;stroke:none"
         id="path148" />
      <path
         d="m 14324.2,10721.8 h -65.3 c -170.4,0 -309.8,-139.4 -309.8,-309.8 0,-170.3 139.4,-309.7 309.8,-309.7 h 62.4 c 33.6,202.4 35.8,411.4 2.9,619.5"
         style="fill:#d3dfff;fill-opacity:1;fill-rule:nonzero;stroke:none"
         id="path150" />
      <path
         d="m 8384.88,7815 -290.91,155.5 177.28,385 c 0,0 246.82,445.9 370,426.8 123.19,-18.6 -256.37,-967.3 -256.37,-967.3"
         style="fill:#f9b384;fill-opacity:1;fill-rule:nonzero;stroke:none"
         id="path152" />
      <path
         d="m 7346.87,7666.9 -60.4,-101.4 c -120.14,165.1 -384.88,517 -717.95,796.5 -299.48,251.1 -705.81,641.7 -1060.51,587.6 C 4558.34,8805.5 4098.13,5781.8 4098.13,5781.8 l 2457.28,889.4 550.46,-428.8 c 119.74,-93.3 270.3,-137.9 421.51,-124.9 254.04,21.9 466.69,201.6 530.76,448.3 l 89.64,345.4 -800.91,755.7"
         style="fill:#fbc343;fill-opacity:1;fill-rule:nonzero;stroke:none"
         id="path154" />
      <path
         d="m 6540.33,6654.2 -666.69,590.8 30.14,34.1 666.69,-590.9 -30.14,-34"
         style="fill:#e49b31;fill-opacity:1;fill-rule:nonzero;stroke:none"
         id="path156" />
      <path
         d="m 7603.14,7065.2 -401.53,568.2 37.11,26.2 401.53,-568.2 -37.11,-26.2"
         style="fill:#e49b31;fill-opacity:1;fill-rule:nonzero;stroke:none"
         id="path158" />
      <path
         d="m 19791.1,13535.4 c 0,0 -115,-359.9 -404.8,-519.8 -289.9,-159.9 -674.7,-329.8 -544.8,-384.8 130,-55 477.3,-20 477.3,-20 0,0 -672.2,-519.7 -482.3,-574.7 189.9,-55 649.7,319.8 649.7,319.8 0,0 -62.5,-139.9 32.5,-169.9 94.9,-30 277.4,5 277.4,5 0,0 -25,-99.9 164.9,-74.9 189.9,24.9 684.6,624.7 684.6,624.7 l 35,549.7 -889.5,244.9"
         style="fill:#e28b6d;fill-opacity:1;fill-rule:nonzero;stroke:none"
         id="path160" />
      <path
         d="m 19206.3,16623.9 c 0,0 749.7,194.9 1874.1,-509.8 1011.9,-634.1 1079.5,-1259.4 599.7,-2039 -479.7,-779.6 -1034.5,-1334.3 -1034.5,-1334.3 l -854.5,794.6 749.6,1169.4 -1334.4,1919.1"
         style="fill:#3a6bea;fill-opacity:1;fill-rule:nonzero;stroke:none"
         id="path162" />
      <path
         d="m 18941.5,16503.9 c 0,0 -1059.5,-569.7 -1599.3,-1799.1 h 3698.3 l -1019.6,1619.2 -1079.4,179.9"
         style="fill:#3a6bea;fill-opacity:1;fill-rule:nonzero;stroke:none"
         id="path164" />
      <path
         d="m 17898.2,14709.8 c 0,0 363.6,-63.7 491,0 127.5,63.7 -277.3,247.4 -625.9,333.6 -348.6,86.2 -757.1,239.9 -1094.5,-239.9 -337.3,-479.8 -303.6,-513.5 -194.9,-506 108.7,7.5 367.3,329.8 367.3,329.8 0,0 -277.3,-348.5 -146.2,-386 131.2,-37.5 446.1,438.5 446.1,438.5 0,0 -269.9,-386 -131.2,-431 138.7,-45 438.5,427.3 438.5,427.3 0,0 -303.6,-476.1 -119.9,-464.8 119.5,7.3 256.5,216.1 337.6,361.2 47.1,84.3 135.5,137.3 232.1,137.3"
         style="fill:#e28b6d;fill-opacity:1;fill-rule:nonzero;stroke:none"
         id="path166" />
      <path
         d="m 19200.2,15980.5 c -144,0 -257.7,61.8 -259.9,63 l 22.2,39.7 c 15,-8.3 370.9,-200.6 600.5,157.2 l 38.3,-24.5 c -119.4,-186 -272.4,-235.4 -401.1,-235.4"
         style="fill:#102048;fill-opacity:1;fill-rule:nonzero;stroke:none"
         id="path168" />
      <path
         d="m 19810.1,13523 -38.1,24.8 966.8,1485.3 -370.8,578.6 38.2,24.5 386.8,-603.3 -982.9,-1509.9"
         style="fill:#102048;fill-opacity:1;fill-rule:nonzero;stroke:none"
         id="path170" />
      <path
         d="m 19418.2,16456.7 c -61.1,-217.4 -351.9,-263.1 -485.9,-81.4 l -35.8,48.1 -230.8,312.7 237.8,309.2 22.8,29.8 54.1,-40.2 39.2,-29.3 415.5,-310.7 c 8.4,-96.3 1,-174.7 -16.9,-238.2"
         style="fill:#e28b6d;fill-opacity:1;fill-rule:nonzero;stroke:none"
         id="path172" />
      <path
         d="m 18896.5,16423.4 -230.8,312.7 237.8,309.2 76.9,-10.4 36.7,-5 c 0,0 1,-8.4 2.5,-24.3 6,-80.4 13.9,-346.4 -123.1,-582.2"
         style="fill:#102048;fill-opacity:1;fill-rule:nonzero;stroke:none"
         id="path174" />
      <path
         d="m 18008.1,17228.3 c 0,0 514.7,-924.4 885.1,-537.7 281.3,293.7 82.8,699 82.8,699 l -273,264.8 -608.1,-182 -86.8,-244.1"
         style="fill:#e28b6d;fill-opacity:1;fill-rule:nonzero;stroke:none"
         id="path176" />
      <path
         d="m 18802.2,17182.8 c 0,0 -173.7,276.1 -362.9,145.8 -189.3,-130.3 -411.6,-480.8 -671.1,-278.1 -180.7,141 -57.9,541.8 180.9,507.7 0,0 263.7,505.7 716.6,372.2 453,-133.3 279.2,-403.2 521.2,-443.6 242,-40.3 1025.6,-96.6 895.3,-924.9 0,0 -335.3,89.5 -615.1,58.3 -349.8,-39.1 -586.3,537.8 -586.3,537.8 -22.7,-6.2 -78.6,24.8 -78.6,24.8"
         style="fill:#fbc343;fill-opacity:1;fill-rule:nonzero;stroke:none"
         id="path178" />
      <path
         d="m 18982.2,17204.5 c 0,-97.6 -61.2,-176.8 -136.5,-176.8 -75.4,0 -136.5,79.2 -136.5,176.8 0,97.7 61.1,176.9 136.5,176.9 75.3,0 136.5,-79.2 136.5,-176.9"
         style="fill:#e28b6d;fill-opacity:1;fill-rule:nonzero;stroke:none"
         id="path180" />
      <path
         d="M 28644.8,1981.8 H 1235.19 V 2050 H 28644.8 v -68.2"
         style="fill:#102048;fill-opacity:1;fill-rule:nonzero;stroke:none"
         id="path182" />
      <path
         d="m 22281.1,3415.4 h 1875 v 1090.9 h -1875 z"
         style="fill:#1f3c88;fill-opacity:1;fill-rule:nonzero;stroke:none"
         id="path184" />
      <path
         d="m 24374.3,2018 999.1,-501.8 -339.9,1299.3 -439.4,84.5 -460.1,-164.4 240.3,-717.6"
         style="fill:#102048;fill-opacity:1;fill-rule:nonzero;stroke:none"
         id="path186" />
      <path
         d="m 24594.3,2899.9 -220,-881.8 c 0,0 -948.7,125 -1878.2,331.4 -428.7,94.5 -853.2,206.8 -1178.7,332.2 -171.4,65.9 -315.4,135.5 -418.2,207.8 -722.3,509.1 -464.5,1681.4 760.5,1480.9 474.5,-77.7 986.4,-289.1 1448.2,-528.6 210.5,-108.7 410,-223.7 590.9,-334.1 528.2,-321.9 895.5,-607.8 895.5,-607.8"
         style="fill:#3a6bea;fill-opacity:1;fill-rule:nonzero;stroke:none"
         id="path188" />
      <path
         d="m 22496.1,2349.5 v 0 c -428.7,94.5 -853.2,206.8 -1178.7,332.2 l 1790.5,1160.1 c 210.5,-108.7 410,-223.7 590.9,-334.1 L 22496.1,2349.5"
         style="fill:#2d54b9;fill-opacity:1;fill-rule:nonzero;stroke:none"
         id="path190" />
      <path
         d="m 21225.4,2740.6 -1209.5,-702.2 1779.9,7.4 114.2,674.8 -684.6,20"
         style="fill:#102048;fill-opacity:1;fill-rule:nonzero;stroke:none"
         id="path192" />
      <path
         d="m 22284.9,2895.5 -374.9,-174.9 -114.2,-674.8 24.3,0.1 744.6,-10 259.9,324.9 -539.7,534.7"
         style="fill:#f9b384;fill-opacity:1;fill-rule:nonzero;stroke:none"
         id="path194" />
      <path
         d="m 22284.9,2895.5 c 0,0 1419.3,1389.3 2648.7,1719.2 1139.8,305.8 1479.3,-839.6 839.6,-1409.4 -639.7,-569.7 -3208.5,-1169.4 -3208.5,-1169.4 l -279.8,859.6"
         style="fill:#3a6bea;fill-opacity:1;fill-rule:nonzero;stroke:none"
         id="path196" />
      <path
         d="m 22570.3,2013.9 -11.1,44 c 881.5,222.6 1787.2,464.3 2440.8,723.3 l 16.8,-42.3 c -656,-259.9 -1563.5,-502 -2446.5,-725"
         style="fill:#102048;fill-opacity:1;fill-rule:nonzero;stroke:none"
         id="path198" />
      <path
         d="m 23142.5,8360.6 c -127.7,-10.4 -248.1,-41.9 -354.4,-117.5 -88.7,-63.1 -156.7,-150.5 -200.4,-249.9 -67.7,-154.3 -52,-326.6 -103.9,-484.7 -50,-152.2 -172.5,-230.7 -286.5,-332.4 -109.8,-97.9 -188.8,-259.9 -149.7,-408.7 10.9,-41.2 31,-79.5 57.6,-112.8 20.3,-25.5 82.6,-99 117.6,-99.2 l 1930.5,-8.5 c 0,0 358.7,336 -54.1,728.9 -114.6,109 -242.9,221.1 -301.2,374.3 -36,94.6 -54.1,194.4 -81.2,291.5 -34.6,123.9 -110.8,250.3 -213.6,328.9 -103.5,79.2 -233.3,100.5 -360.7,90.1"
         style="fill:#102048;fill-opacity:1;fill-rule:nonzero;stroke:none"
         id="path200" />
      <path
         d="m 22980.2,8243.8 c 0,0 -321.7,244.9 -2.9,355.9 244,85 472.7,-11.3 327.5,-327.4 l -324.6,-28.5"
         style="fill:#102048;fill-opacity:1;fill-rule:nonzero;stroke:none"
         id="path202" />
      <path
         d="m 23064.5,7016 c 0,0 -1814.1,-307.3 -2174,-1559.2 -359.8,-1251.9 1830,-1333.1 1830,-1333.1 0,0 2150.6,73.7 2532.9,418.5 382.3,344.8 577.2,2091.5 -1979,2458.8 l -209.9,15"
         style="fill:#eb5d60;fill-opacity:1;fill-rule:nonzero;stroke:none"
         id="path204" />
      <path
         d="m 23181.4,6331.3 c -11.7,0 -23.5,0.5 -35.1,1.4 -130.4,10.6 -233.7,78 -290.8,189.8 l 40.5,20.7 c 49.7,-97.2 139.9,-155.9 253.9,-165.1 139.8,-11.8 290.4,53.1 366.7,156.8 l 36.6,-26.9 c -78.7,-107 -227.7,-176.7 -371.8,-176.7"
         style="fill:#ab4446;fill-opacity:1;fill-rule:nonzero;stroke:none"
         id="path206" />
      <path
         d="m 22454.3,4767.1 -948.9,767 28.6,35.4 948.9,-767.1 -28.6,-35.3"
         style="fill:#ab4446;fill-opacity:1;fill-rule:nonzero;stroke:none"
         id="path208" />
      <path
         d="m 23953.2,4767.5 -29.8,34.4 865.6,748.1 29.7,-34.3 -865.5,-748.2"
         style="fill:#ab4446;fill-opacity:1;fill-rule:nonzero;stroke:none"
         id="path210" />
      <path
         d="m 24108.6,4039.9 h -1888.2 c -63.5,0 -115,51.5 -115,115 v 1316.8 c 0,63.5 51.5,115 115,115 h 1888.2 c 63.5,0 114.9,-51.5 114.9,-115 V 4154.9 c 0,-63.5 -51.4,-115 -114.9,-115"
         style="fill:#ffffff;fill-opacity:1;fill-rule:nonzero;stroke:none"
         id="path212" />
      <path
         d="m 22964.9,7403.7 -49.3,-469.7 c -9.4,-90 26.3,-178.9 94.8,-235.7 93.7,-77.8 227.1,-78.7 321.8,-2.1 l 4.3,3.5 c 72,58.2 108.7,151.3 96.5,244.6 l -61,467.8 -407.1,-8.4"
         style="fill:#f9b384;fill-opacity:1;fill-rule:nonzero;stroke:none"
         id="path214" />
      <path
         d="m 22956,7307.1 c 143.8,-281.9 306.1,-287.6 429.9,-7.1 l -254.8,32.7 -175.1,-25.6"
         style="fill:#102048;fill-opacity:1;fill-rule:nonzero;stroke:none"
         id="path216" />
      <path
         d="m 23518.5,7654.5 c 0,-248.5 -153.9,-449.9 -343.8,-449.9 -189.9,0 -343.8,201.4 -343.8,449.9 0,248.4 153.9,449.8 343.8,449.8 189.9,0 343.8,-201.4 343.8,-449.8"
         style="fill:#f9b384;fill-opacity:1;fill-rule:nonzero;stroke:none"
         id="path218" />
      <path
         d="m 23575.3,7728.5 c 0,0 -344.5,5.7 -458.4,284.7 0,0 -185.1,-65.5 -233.5,-304.6 l -131,-45.6 -2.8,375.8 290.4,185.1 259.1,-5.7 227.8,-190.7 48.4,-299"
         style="fill:#102048;fill-opacity:1;fill-rule:nonzero;stroke:none"
         id="path220" />
      <path
         d="m 22931.6,7690.7 c 38.4,-74 18.6,-160.4 -44.2,-193 -62.8,-32.6 -144.9,1 -183.2,75 -38.4,74 -18.6,160.4 44.2,192.9 62.9,32.6 144.9,-0.9 183.2,-74.9"
         style="fill:#f9b384;fill-opacity:1;fill-rule:nonzero;stroke:none"
         id="path222" />
      <path
         d="m 23430.2,7690.7 c -38.4,-74 -18.5,-160.4 44.3,-193 62.8,-32.6 144.8,1 183.2,75 38.4,74 18.5,160.4 -44.3,192.9 -62.8,32.6 -144.8,-0.9 -183.2,-74.9"
         style="fill:#f9b384;fill-opacity:1;fill-rule:nonzero;stroke:none"
         id="path224" />
    </g>
  </g>
</svg>
